# xmcd
#
# Track frame offsets:
# 150
# 1707
# 8403
# 37072
# 47699
# 57909
# 67615
# 105883
# 108030
# 121189
# 129841
# 146816
# 154703
# 163070
# 175195
# 186988
# 194501
# 201418
# 214405
# 222396
# 229195
#
# Disc length: 3102 seconds
#
#
# Revision: 0
# Processed by: cddbd v1.5.1PL0 Copyright (c) Steve Scherf et al.
# Submitted via: FreeRIP 2.941 
#
DISCID=1c0c1c15
DTITLE=ternos de reis - alegrementes cantano - vitória da conquista
DYEAR=2005
DGENRE=Folklore
TTITLE0=passo preto (vinheta)
TTITLE1=samba (instrumental)
TTITLE2=reis da lapinha (alegrementes cantano)
TTITLE3=a maré encheu
TTITLE4=preá corredeira (instrumental)
TTITLE5=samba vira mão (instrumental)
TTITLE6=reis do divino espírito santo
TTITLE7=moça bonita (vinheta)
TTITLE8=passo preto
TTITLE9=mariquinha
TTITLE10=é hora de viajar
TTITLE11=é hora da viagem (instrumental)
TTITLE12=viva maria do céu
TTITLE13=o galo cantou
TTITLE14=preá corredeira (instrumental)
TTITLE15=moça bonita
TTITLE16=samba (instrumental)
TTITLE17=viva janeiro
TTITLE18=contra-dança (instrumental)
TTITLE19=samba de despedida (instrumental)
TTITLE20=despedida de santo reis
EXTD=
EXTT0=
EXTT1=
EXTT2=
EXTT3=
EXTT4=
EXTT5=
EXTT6=
EXTT7=
EXTT8=
EXTT9=
EXTT10=
EXTT11=
EXTT12=
EXTT13=
EXTT14=
EXTT15=
EXTT16=
EXTT17=
EXTT18=
EXTT19=
EXTT20=
PLAYORDER=
